<svg xmlns="http://www.w3.org/2000/svg" enable-background="new 0 0 24 24" viewBox="0 0 24 24" id="numpad"><path d="M5.5,3C6.3,3,7,3.7,7,4.5S6.3,6,5.5,6S4,5.3,4,4.5S4.7,3,5.5,3L5.5,3z M18.5,3C17.7,3,17,3.7,17,4.5S17.7,6,18.5,6S20,5.3,20,4.5S19.3,3,18.5,3L18.5,3z M12,3c-0.8,0-1.5,0.7-1.5,1.5S11.2,6,12,6s1.5-0.7,1.5-1.5S12.8,3,12,3L12,3z M5.5,8C4.7,8,4,8.7,4,9.5S4.7,11,5.5,11S7,10.3,7,9.5S6.3,8,5.5,8L5.5,8z M18.5,8C17.7,8,17,8.7,17,9.5s0.7,1.5,1.5,1.5S20,10.3,20,9.5S19.3,8,18.5,8L18.5,8z M12,8c-0.8,0-1.5,0.7-1.5,1.5S11.2,11,12,11s1.5-0.7,1.5-1.5S12.8,8,12,8L12,8z M5.5,13C4.7,13,4,13.7,4,14.5S4.7,16,5.5,16S7,15.3,7,14.5S6.3,13,5.5,13L5.5,13z M18.5,13c-0.8,0-1.5,0.7-1.5,1.5s0.7,1.5,1.5,1.5s1.5-0.7,1.5-1.5S19.3,13,18.5,13L18.5,13z M12,18c-0.8,0-1.5,0.7-1.5,1.5S11.2,21,12,21s1.5-0.7,1.5-1.5S12.8,18,12,18L12,18z M12,13c-0.8,0-1.5,0.7-1.5,1.5S11.2,16,12,16s1.5-0.7,1.5-1.5S12.8,13,12,13L12,13z"></path></svg>