<?xml version="1.0" standalone="no"?>
<!DOCTYPE svg PUBLIC "-//W3C//DTD SVG 20010904//EN"
 "http://www.w3.org/TR/2001/REC-SVG-20010904/DTD/svg10.dtd">
<svg version="1.0" xmlns="http://www.w3.org/2000/svg"
 width="512.000000pt" height="512.000000pt" viewBox="0 0 512.000000 512.000000"
 preserveAspectRatio="xMidYMid meet">

<g transform="translate(0.000000,512.000000) scale(0.100000,-0.100000)"
fill="#000000" stroke="none">
<path d="M4280 5106 c-225 -49 -414 -185 -522 -377 l-22 -39 -1308 0 c-889 0
-1316 3 -1329 10 -10 6 -49 40 -84 75 -159 157 -401 212 -608 140 -256 -89
-423 -337 -404 -601 22 -316 281 -557 597 -557 165 1 285 51 417 176 l82 77
1319 0 1319 0 36 -59 c97 -156 251 -275 430 -330 275 -85 564 -15 762 183 81
81 145 180 152 235 7 48 -17 95 -60 121 -30 19 -52 20 -324 20 l-293 0 0 170
0 170 288 0 c322 0 337 3 374 71 27 50 22 88 -17 154 -99 164 -237 272 -426
336 -112 37 -271 48 -379 25z m265 -171 c108 -23 223 -84 300 -161 36 -36 65
-69 65 -74 0 -5 -119 -10 -269 -12 -301 -3 -297 -3 -349 -79 -23 -33 -23 -37
-20 -264 3 -224 4 -231 27 -264 47 -65 75 -71 359 -71 151 0 252 -4 252 -9 0
-23 -132 -140 -196 -173 -102 -53 -173 -71 -284 -70 -215 2 -389 100 -518 291
-89 132 -72 125 -348 129 l-234 3 0 170 0 169 215 0 c279 0 290 4 362 128 129
222 389 339 638 287z m-3863 -166 c84 -18 163 -64 231 -133 102 -105 118 -110
345 -114 l192 -4 0 -168 0 -168 -197 -4 c-232 -4 -229 -2 -344 -114 -86 -83
-150 -118 -246 -133 -279 -44 -533 209 -486 483 42 245 270 405 505 355z
m2478 -419 l0 -170 -770 0 -770 0 0 170 0 170 770 0 770 0 0 -170z"/>
<path d="M516 4594 c-68 -22 -140 -95 -160 -165 -20 -65 -20 -93 -2 -152 32
-106 129 -177 242 -177 73 0 121 18 173 65 57 52 85 123 79 205 -6 73 -23 113
-69 159 -68 69 -171 94 -263 65z m142 -186 c51 -49 11 -138 -63 -138 -61 0
-100 61 -73 116 26 56 89 65 136 22z"/>
<path d="M1106 3655 c-22 -8 -51 -22 -65 -33 -14 -10 -146 -155 -293 -323
l-268 -304 -132 -5 c-149 -6 -188 -19 -229 -73 -23 -31 -24 -38 -27 -249 l-3
-216 -25 -17 c-47 -31 -64 -87 -64 -217 0 -157 18 -199 105 -239 34 -16 67
-19 227 -19 l187 0 16 -57 c48 -165 191 -304 359 -349 69 -19 200 -18 267 2
169 50 312 193 354 354 l11 45 91 3 91 3 4 -118 c4 -137 17 -166 91 -202 38
-18 62 -21 185 -21 l142 0 0 -555 0 -555 -447 0 c-445 0 -448 0 -488 -23 -67
-37 -85 -87 -85 -233 0 -147 18 -193 90 -231 l43 -23 1317 0 1317 0 43 23 c72
38 90 84 90 232 0 108 -3 127 -23 166 -15 27 -38 52 -63 66 -39 23 -42 23
-486 23 l-448 0 0 555 0 555 143 0 c131 0 148 2 188 23 71 38 89 80 89 210 l0
108 92 -3 92 -3 8 -39 c13 -64 76 -170 133 -227 102 -100 219 -149 359 -149
98 0 162 16 247 61 115 61 197 161 240 293 l22 66 186 0 c212 0 246 9 297 76
28 36 29 42 32 165 3 110 1 134 -16 172 -11 25 -32 53 -46 62 -26 17 -26 18
-26 149 0 117 -3 136 -24 181 -28 60 -66 97 -126 124 -39 17 -120 25 -610 57
l-565 37 -395 316 c-217 173 -415 327 -440 341 l-45 25 -840 2 c-703 2 -846 0
-879 -12z m604 -410 l0 -255 -501 0 c-397 0 -499 3 -493 13 17 27 424 485 436
490 7 3 136 6 286 6 l272 1 0 -255z m1111 223 c24 -17 169 -132 323 -255 l278
-223 -771 0 -771 0 0 255 0 255 448 0 449 0 44 -32z m1375 -688 c324 -22 595
-40 602 -40 7 0 24 -11 37 -25 24 -23 25 -31 25 -135 l0 -110 -56 0 c-67 0
-87 -10 -104 -50 -10 -24 -10 -36 1 -61 17 -44 61 -59 164 -59 l85 0 0 -85 0
-85 -174 0 -174 0 -11 46 c-29 112 -114 231 -214 297 -284 187 -670 49 -768
-275 l-21 -68 -1028 0 -1028 0 -21 69 c-71 235 -314 389 -557 354 -111 -16
-225 -75 -298 -154 -61 -65 -108 -149 -127 -223 l-11 -46 -174 0 -174 0 0 85
0 85 84 0 c102 0 142 13 162 52 12 23 13 36 5 60 -16 45 -39 57 -103 58 l-58
0 0 175 0 175 1674 0 1674 0 588 -40z m-3028 -425 c115 -53 192 -172 193 -299
1 -111 -32 -188 -111 -259 -73 -66 -144 -90 -245 -85 -157 9 -271 103 -311
257 -69 273 215 504 474 386z m3076 -4 c255 -125 255 -477 1 -609 -73 -37
-188 -42 -270 -11 -173 65 -262 264 -196 440 70 185 286 269 465 180z m-1004
-476 l0 -85 -680 0 -680 0 0 85 0 85 680 0 680 0 0 -85z m-770 -680 c0 -339 3
-432 14 -459 31 -75 133 -68 155 11 7 24 11 194 11 456 l0 417 85 0 85 0 -2
-552 -3 -553 -255 0 -255 0 -3 553 -2 552 85 0 85 0 0 -425z m1370 -940 l0
-85 -1280 0 -1280 0 0 85 0 85 1280 0 1280 0 0 -85z"/>
<path d="M2071 2614 c-28 -35 -27 -76 3 -110 22 -26 30 -28 119 -32 149 -7
207 25 193 103 -11 56 -34 65 -172 65 -120 0 -123 0 -143 -26z"/>
</g>
</svg>
