<svg width="51" height="52" viewBox="0 0 51 52" fill="none" xmlns="http://www.w3.org/2000/svg">
<path d="M48.5759 23.0388H50.8303C50.5444 20.3297 49.8363 17.7505 48.7773 15.3597L46.8218 16.4901C45.5355 17.2373 43.8853 16.7955 43.1382 15.5026C42.3911 14.2163 42.8328 12.5661 44.1257 11.819L46.0747 10.6951C44.5025 8.54467 42.6055 6.64113 40.455 5.07542L39.3311 7.02443C38.584 8.31078 36.9403 8.75256 35.6475 8.01193C34.3611 7.26481 33.9194 5.62114 34.66 4.3283L35.7904 2.37279C33.3996 1.30732 30.8204 0.60568 28.1113 0.319824V2.57419C28.1113 4.06193 26.9029 5.27032 25.4152 5.27032C23.9274 5.27032 22.719 4.06193 22.719 2.57419V0.319824C20.0099 0.60568 17.4307 1.31382 15.0399 2.37279L16.1703 4.3283C16.9174 5.61465 16.4757 7.26481 15.1828 8.01193C13.8965 8.75906 12.2463 8.31728 11.4992 7.02443L10.3753 5.07542C8.22484 6.64762 6.3213 8.54467 4.7556 10.6951L6.70461 11.819C7.99096 12.5661 8.43274 14.2098 7.69211 15.5026C6.94499 16.789 5.30132 17.2308 4.00848 16.4901L2.05296 15.3597C0.987503 17.7505 0.285855 20.3297 0 23.0388H2.25436C3.74211 23.0388 4.9505 24.2472 4.9505 25.735C4.9505 27.2227 3.74211 28.4311 2.25436 28.4311H0C0.285855 31.1402 0.994 33.7194 2.05296 36.1102L4.00848 34.9798C5.29483 34.2327 6.94499 34.6745 7.69211 35.9673C8.43924 37.2536 7.99746 38.9038 6.70461 39.6509L4.7556 40.7749C6.3278 42.9253 8.22484 44.8288 10.3753 46.3945L11.4992 44.4455C12.2463 43.1592 13.89 42.7174 15.1828 43.458C16.4692 44.2051 16.911 45.8488 16.1703 47.1416L15.0399 49.0972C17.4307 50.1626 20.0099 50.8643 22.719 51.1501V48.8958C22.719 47.408 23.9274 46.1996 25.4152 46.1996C26.9029 46.1996 28.1113 47.408 28.1113 48.8958V51.1501C30.8204 50.8643 33.3996 50.1561 35.7904 49.0972L34.66 47.1416C33.9129 45.8553 34.3546 44.2051 35.6475 43.458C36.9338 42.7109 38.584 43.1527 39.3311 44.4455L40.455 46.3945C42.6055 44.8223 44.509 42.9253 46.0747 40.7749L44.1257 39.6509C42.8393 38.9038 42.3976 37.2601 43.1382 35.9673C43.8853 34.6809 45.529 34.2392 46.8218 34.9798L48.7773 36.1102C49.8428 33.7194 50.5444 31.1402 50.8303 28.4311H48.5759C47.0882 28.4311 45.8798 27.2227 45.8798 25.735C45.8798 24.2472 47.0882 23.0388 48.5759 23.0388ZM25.4152 40.6319C17.1838 40.6319 10.5182 33.9598 10.5182 25.735C10.5182 17.5101 17.1903 10.838 25.4152 10.838C33.64 10.838 40.3121 17.5101 40.3121 25.735C40.3121 33.9598 33.64 40.6319 25.4152 40.6319Z" fill="url(#paint0_linear_7_2)"/>
<path d="M28.761 48.8958C28.761 47.0507 27.2602 45.5499 25.4151 45.5499C23.5701 45.5499 22.0693 47.0507 22.0693 48.8958V50.416C19.9709 50.1366 17.9244 49.5844 15.9689 48.7853L16.729 47.4665C17.1773 46.6934 17.2943 45.7903 17.0604 44.9263C16.8265 44.0622 16.2743 43.3411 15.5012 42.8928C14.9944 42.6004 14.4162 42.4445 13.8315 42.4445C12.6361 42.4445 11.5252 43.0877 10.934 44.1207L10.1739 45.4395C8.5042 44.1467 7.00345 42.6459 5.71061 40.9763L7.02944 40.2161C8.62763 39.2936 9.17335 37.2406 8.25732 35.649C7.65962 34.616 6.54868 33.9728 5.35978 33.9728C4.77508 33.9728 4.19687 34.1287 3.69013 34.4211L2.37129 35.1812C1.5657 33.2257 1.01998 31.1792 0.740618 29.0808H2.26085C4.10592 29.0808 5.60666 27.58 5.60666 25.735C5.60666 23.8899 4.10592 22.3892 2.26085 22.3892H0.740618C1.01998 20.2907 1.5722 18.2443 2.37129 16.2887L3.69013 17.0489C4.19687 17.3412 4.77508 17.4971 5.35978 17.4971C6.55518 17.4971 7.66612 16.854 8.25732 15.821C8.70559 15.0479 8.82253 14.1448 8.58865 13.2808C8.35477 12.4167 7.80255 11.6956 7.02944 11.2473L5.71061 10.4872C7.00345 8.81752 8.5042 7.31678 10.1739 6.02394L10.934 7.34277C11.5317 8.37575 12.6426 9.01892 13.8315 9.01892C14.4162 9.01892 14.9944 8.863 15.5012 8.57065C16.2743 8.12238 16.8265 7.40124 17.0604 6.53718C17.2943 5.67312 17.1708 4.77007 16.729 3.99696L15.9689 2.67813C17.9244 1.87254 19.9709 1.32681 22.0693 1.04745V2.56769C22.0693 4.41275 23.5701 5.91349 25.4151 5.91349C27.2602 5.91349 28.761 4.41275 28.761 2.56769V1.04745C30.8594 1.32681 32.9059 1.87904 34.8614 2.67813L34.1013 3.99696C33.653 4.77007 33.536 5.67312 33.7699 6.53718C34.0038 7.40124 34.556 8.12238 35.3291 8.57065C35.8359 8.863 36.4141 9.01892 36.9988 9.01892C38.1942 9.01892 39.3051 8.37575 39.8963 7.34277L40.6564 6.02394C42.3261 7.31678 43.8268 8.81752 45.1197 10.4872L43.8009 11.2473C43.0277 11.6956 42.4755 12.4167 42.2416 13.2808C42.0078 14.1448 42.1312 15.0479 42.573 15.821C43.1707 16.854 44.2816 17.4971 45.4705 17.4971C46.0552 17.4971 46.6334 17.3412 47.1402 17.0489L48.459 16.2887C49.2646 18.2443 49.8103 20.2907 50.0897 22.3892H48.5694C46.7244 22.3892 45.2236 23.8899 45.2236 25.735C45.2236 27.58 46.7244 29.0808 48.5694 29.0808H50.0897C49.8103 31.1792 49.2581 33.2257 48.459 35.1812L47.1402 34.4211C46.6334 34.1287 46.0552 33.9728 45.4705 33.9728C44.2751 33.9728 43.1642 34.616 42.573 35.6425C41.6504 37.2406 42.2027 39.2936 43.8009 40.2161L45.1197 40.9763C43.8268 42.6459 42.3261 44.1467 40.6564 45.4395L39.8963 44.1207C39.2986 43.0877 38.1877 42.4445 36.9988 42.4445C36.4141 42.4445 35.8359 42.6004 35.3291 42.8928C34.556 43.3411 34.0038 44.0622 33.7699 44.9263C33.536 45.7903 33.6595 46.6934 34.1013 47.4665L34.8614 48.7853C32.9059 49.5909 30.8594 50.1366 28.761 50.416V48.8958ZM25.4151 10.1818C16.8395 10.1818 9.86851 17.1593 9.86851 25.735C9.86851 34.3106 16.846 41.2881 25.4151 41.2881C33.9908 41.2881 40.9618 34.3106 40.9618 25.735C40.9618 17.1593 33.9843 10.1818 25.4151 10.1818Z" fill="url(#paint1_linear_7_2)"/>
<path d="M25.4151 42.3925C34.6185 42.3925 42.0792 34.9318 42.0792 25.7285C42.0792 16.5252 34.6185 9.0644 25.4151 9.0644C16.2118 9.0644 8.75107 16.5252 8.75107 25.7285C8.75107 34.9318 16.2118 42.3925 25.4151 42.3925Z" fill="url(#paint2_linear_7_2)"/>
<path d="M25.4151 41.0932C16.9434 41.0932 10.0504 34.2002 10.0504 25.7285C10.0504 17.2568 16.9434 10.3637 25.4151 10.3637C33.8869 10.3637 40.7799 17.2568 40.7799 25.7285C40.7799 34.2002 33.8869 41.0932 25.4151 41.0932Z" fill="url(#paint3_linear_7_2)"/>
<path d="M25.6685 33.3361C29.3678 33.3361 32.3666 30.3373 32.3666 26.638C32.3666 22.9387 29.3678 19.9399 25.6685 19.9399C21.9692 19.9399 18.9704 22.9387 18.9704 26.638C18.9704 30.3373 21.9692 33.3361 25.6685 33.3361Z" fill="url(#paint4_radial_7_2)"/>
<path d="M29.4756 25.7285C29.4756 27.9698 27.6565 29.7889 25.4152 29.7889C23.1738 29.7889 21.3547 27.9698 21.3547 25.7285C21.3547 23.4871 23.1738 21.668 25.4152 21.668C27.6565 21.668 29.4756 23.4871 29.4756 25.7285Z" fill="url(#paint5_linear_7_2)"/>
<path d="M25.4152 29.4706C23.3557 29.4706 21.6795 27.7944 21.6795 25.735C21.6795 23.6755 23.3557 21.9994 25.4152 21.9994C27.4746 21.9994 29.1508 23.6755 29.1508 25.735C29.1508 27.7944 27.4746 29.4706 25.4152 29.4706Z" fill="url(#paint6_linear_7_2)"/>
<path d="M25.4151 27.5865C26.3122 27.5865 27.0393 26.8594 27.0393 25.9624C27.0393 25.0654 26.3122 24.3382 25.4151 24.3382C24.5181 24.3382 23.791 25.0654 23.791 25.9624C23.791 26.8594 24.5181 27.5865 25.4151 27.5865Z" fill="url(#paint7_radial_7_2)"/>
<path d="M25.4151 27.0993C26.1722 27.0993 26.786 26.4855 26.786 25.7285C26.786 24.9714 26.1722 24.3577 25.4151 24.3577C24.6581 24.3577 24.0443 24.9714 24.0443 25.7285C24.0443 26.4855 24.6581 27.0993 25.4151 27.0993Z" fill="url(#paint8_linear_7_2)"/>
<path d="M25.4151 26.9888C24.72 26.9888 24.1548 26.4236 24.1548 25.7285C24.1548 25.0333 24.72 24.4681 25.4151 24.4681C26.1103 24.4681 26.6755 25.0333 26.6755 25.7285C26.6755 26.4236 26.1103 26.9888 25.4151 26.9888Z" fill="url(#paint9_linear_7_2)"/>
<path d="M25.4152 26.4886C25.835 26.4886 26.1753 26.1483 26.1753 25.7285C26.1753 25.3087 25.835 24.9684 25.4152 24.9684C24.9954 24.9684 24.655 25.3087 24.655 25.7285C24.655 26.1483 24.9954 26.4886 25.4152 26.4886Z" fill="url(#paint10_linear_7_2)"/>
<path d="M25.4152 26.4301C25.0318 26.4301 24.72 26.1183 24.72 25.735C24.72 25.3517 25.0318 25.0398 25.4152 25.0398C25.7985 25.0398 26.1103 25.3517 26.1103 25.735C26.1103 26.1183 25.7985 26.4301 25.4152 26.4301Z" fill="url(#paint11_linear_7_2)"/>
<defs>
<linearGradient id="paint0_linear_7_2" x1="25.4135" y1="9.75474" x2="25.4135" y2="75.8331" gradientUnits="userSpaceOnUse">
<stop stop-color="#FF5900"/>
<stop offset="0.1502" stop-color="#B80000"/>
<stop offset="0.3112" stop-color="#FF5900"/>
<stop offset="0.4675" stop-color="#B80000"/>
<stop offset="0.5931" stop-color="#FF5900"/>
<stop offset="1" stop-color="#B80000"/>
</linearGradient>
<linearGradient id="paint1_linear_7_2" x1="2.61063" y1="-17.0368" x2="42.3893" y2="57.571" gradientUnits="userSpaceOnUse">
<stop stop-color="#FF5900"/>
<stop offset="0.1502" stop-color="#B80000"/>
<stop offset="0.3112" stop-color="#FF5900"/>
<stop offset="0.4675" stop-color="#B80000"/>
<stop offset="0.5931" stop-color="#FF5900"/>
<stop offset="1" stop-color="#B80000"/>
</linearGradient>
<linearGradient id="paint2_linear_7_2" x1="46.2747" y1="50.7165" x2="22.9767" y2="22.8131" gradientUnits="userSpaceOnUse">
<stop offset="0.2483" stop-color="#B0B0B0"/>
<stop offset="0.2485" stop-color="#B0B0B0"/>
<stop offset="0.304" stop-color="#D2D2D2"/>
<stop offset="0.3565" stop-color="#EBEBEB"/>
<stop offset="0.4047" stop-color="#FAFAFA"/>
<stop offset="0.4441" stop-color="white"/>
<stop offset="0.6971" stop-color="#787878"/>
<stop offset="0.7134" stop-color="#848484"/>
<stop offset="0.7786" stop-color="#B0B0B0"/>
<stop offset="0.8417" stop-color="#D2D2D2"/>
<stop offset="0.9011" stop-color="#EBEBEB"/>
<stop offset="0.9554" stop-color="#FAFAFA"/>
<stop offset="1" stop-color="white"/>
</linearGradient>
<linearGradient id="paint3_linear_7_2" x1="10.0112" y1="13.3546" x2="56.6157" y2="50.8048" gradientUnits="userSpaceOnUse">
<stop offset="0.2483" stop-color="#B0B0B0"/>
<stop offset="0.2485" stop-color="#B0B0B0"/>
<stop offset="0.304" stop-color="#D2D2D2"/>
<stop offset="0.3565" stop-color="#EBEBEB"/>
<stop offset="0.4047" stop-color="#FAFAFA"/>
<stop offset="0.4441" stop-color="white"/>
<stop offset="0.6971" stop-color="#787878"/>
<stop offset="0.7134" stop-color="#848484"/>
<stop offset="0.7786" stop-color="#B0B0B0"/>
<stop offset="0.8417" stop-color="#D2D2D2"/>
<stop offset="0.9011" stop-color="#EBEBEB"/>
<stop offset="0.9554" stop-color="#FAFAFA"/>
<stop offset="1" stop-color="white"/>
</linearGradient>
<radialGradient id="paint4_radial_7_2" cx="0" cy="0" r="1" gradientUnits="userSpaceOnUse" gradientTransform="translate(25.6662 26.6354) scale(6.69896 6.69896)">
<stop stop-color="#787878"/>
<stop offset="0.2352" stop-color="#939393"/>
<stop offset="0.7383" stop-color="#D8D8D8"/>
<stop offset="1" stop-color="white"/>
</radialGradient>
<linearGradient id="paint5_linear_7_2" x1="29.5233" y1="31.588" x2="22.1908" y2="21.1391" gradientUnits="userSpaceOnUse">
<stop offset="0.2483" stop-color="#B0B0B0"/>
<stop offset="0.2485" stop-color="#B0B0B0"/>
<stop offset="0.304" stop-color="#D2D2D2"/>
<stop offset="0.3565" stop-color="#EBEBEB"/>
<stop offset="0.4047" stop-color="#FAFAFA"/>
<stop offset="0.4441" stop-color="white"/>
<stop offset="0.6971" stop-color="#787878"/>
<stop offset="0.7134" stop-color="#848484"/>
<stop offset="0.7786" stop-color="#B0B0B0"/>
<stop offset="0.8417" stop-color="#D2D2D2"/>
<stop offset="0.9011" stop-color="#EBEBEB"/>
<stop offset="0.9554" stop-color="#FAFAFA"/>
<stop offset="1" stop-color="white"/>
</linearGradient>
<linearGradient id="paint6_linear_7_2" x1="20.6437" y1="19.5681" x2="30.652" y2="32.5001" gradientUnits="userSpaceOnUse">
<stop offset="0.2483" stop-color="#B0B0B0"/>
<stop offset="0.2485" stop-color="#B0B0B0"/>
<stop offset="0.304" stop-color="#D2D2D2"/>
<stop offset="0.3565" stop-color="#EBEBEB"/>
<stop offset="0.4047" stop-color="#FAFAFA"/>
<stop offset="0.4441" stop-color="white"/>
<stop offset="0.6971" stop-color="#787878"/>
<stop offset="0.7134" stop-color="#848484"/>
<stop offset="0.7786" stop-color="#B0B0B0"/>
<stop offset="0.8417" stop-color="#D2D2D2"/>
<stop offset="0.9011" stop-color="#EBEBEB"/>
<stop offset="0.9554" stop-color="#FAFAFA"/>
<stop offset="1" stop-color="white"/>
</linearGradient>
<radialGradient id="paint7_radial_7_2" cx="0" cy="0" r="1" gradientUnits="userSpaceOnUse" gradientTransform="translate(25.4135 25.9639) scale(1.62398)">
<stop stop-color="#787878"/>
<stop offset="0.2352" stop-color="#939393"/>
<stop offset="0.7383" stop-color="#D8D8D8"/>
<stop offset="1" stop-color="white"/>
</radialGradient>
<linearGradient id="paint8_linear_7_2" x1="26.7984" y1="27.7049" x2="24.3275" y2="24.1839" gradientUnits="userSpaceOnUse">
<stop offset="0.2483" stop-color="#B0B0B0"/>
<stop offset="0.2485" stop-color="#B0B0B0"/>
<stop offset="0.304" stop-color="#D2D2D2"/>
<stop offset="0.3565" stop-color="#EBEBEB"/>
<stop offset="0.4047" stop-color="#FAFAFA"/>
<stop offset="0.4441" stop-color="white"/>
<stop offset="0.6971" stop-color="#787878"/>
<stop offset="0.7134" stop-color="#848484"/>
<stop offset="0.7786" stop-color="#B0B0B0"/>
<stop offset="0.8417" stop-color="#D2D2D2"/>
<stop offset="0.9011" stop-color="#EBEBEB"/>
<stop offset="0.9554" stop-color="#FAFAFA"/>
<stop offset="1" stop-color="white"/>
</linearGradient>
<linearGradient id="paint9_linear_7_2" x1="23.8062" y1="23.6545" x2="27.1787" y2="28.0123" gradientUnits="userSpaceOnUse">
<stop offset="0.2483" stop-color="#B0B0B0"/>
<stop offset="0.2485" stop-color="#B0B0B0"/>
<stop offset="0.304" stop-color="#D2D2D2"/>
<stop offset="0.3565" stop-color="#EBEBEB"/>
<stop offset="0.4047" stop-color="#FAFAFA"/>
<stop offset="0.4441" stop-color="white"/>
<stop offset="0.6971" stop-color="#787878"/>
<stop offset="0.7134" stop-color="#848484"/>
<stop offset="0.7786" stop-color="#B0B0B0"/>
<stop offset="0.8417" stop-color="#D2D2D2"/>
<stop offset="0.9011" stop-color="#EBEBEB"/>
<stop offset="0.9554" stop-color="#FAFAFA"/>
<stop offset="1" stop-color="white"/>
</linearGradient>
<linearGradient id="paint10_linear_7_2" x1="26.1799" y1="26.8237" x2="24.8124" y2="24.8749" gradientUnits="userSpaceOnUse">
<stop/>
<stop offset="0.2182" stop-color="#292929"/>
<stop offset="0.4396" stop-color="#4B4B4B"/>
<stop offset="0.6498" stop-color="#646464"/>
<stop offset="0.8422" stop-color="#737373"/>
<stop offset="1" stop-color="#787878"/>
</linearGradient>
<linearGradient id="paint11_linear_7_2" x1="23.7614" y1="24.0794" x2="29.1799" y2="29.4978" gradientUnits="userSpaceOnUse">
<stop/>
<stop offset="0.2182" stop-color="#292929"/>
<stop offset="0.4396" stop-color="#4B4B4B"/>
<stop offset="0.6498" stop-color="#646464"/>
<stop offset="0.8422" stop-color="#737373"/>
<stop offset="1" stop-color="#787878"/>
</linearGradient>
</defs>
</svg>
